<svg width="321" height="45" viewBox="0 0 321 45" fill="none" xmlns="http://www.w3.org/2000/svg"><path d="M.54 5.7V.84h34.81V5.7H20.63V45h-5.37V5.7H.54zM48.08 45V.84H69c6.53 0 9.8 3.26 9.8 9.8v7.03c0 5.55-2.37 8.7-7.1 9.47l8.38 16.58-.7 1.28h-4.55l-8.9-17.54H53.45V45h-5.38zm5.37-22.4h15.62c2.9 0 4.35-1.45 4.35-4.35v-8.2c0-2.9-1.45-4.35-4.35-4.35H53.45v16.9zm36.52 21.25L104.44.84h8.83l14.46 43-.77 1.16h-4.41l-3.65-11.14H98.8L95.16 45h-4.42l-.77-1.15zM100.4 29h16.9l-7.68-23.3h-1.54L100.4 29zm39.8 16V.84h5.38V45h-5.38zm22.32 0V.84h5.95l23.23 35.84V.84h5.38V45h-5.95L167.9 9.16V45h-5.38zm51.5 0V.84h5.38V45h-5.38zm22.32 0V.84h5.95l23.23 35.84V.84h5.38V45h-5.95L241.7 9.16V45h-5.37zm50.86-9.8V10.64c0-6.53 3.26-9.79 9.8-9.79h19.32l2.88 2.24V5.7h-22.27c-2.9 0-4.35 1.45-4.35 4.36v25.72c0 2.9 1.45 4.36 4.35 4.36h18.17V24.26h-10.88V19.4h16.26V45h-23.49c-6.53 0-9.79-3.26-9.79-9.8z" fill="#fff"/></svg>