<svg width="285" height="43" viewBox="0 0 285 43" fill="none" xmlns="http://www.w3.org/2000/svg"><path d="M15.74 42H10.5V5.07l.83.83H.32V1.36h25.6V5.9H14.85l.9-.83V42zm27.43 0h-5.31V1.36l17.09-.26c2.9-.04 5.07.6 6.53 1.92 1.45 1.33 2.17 3.35 2.17 6.08v8.2c0 2.43-.62 4.33-1.85 5.7-1.24 1.31-3.12 2.08-5.64 2.3l.07-1.1c1.06.22 1.9.7 2.5 1.42.6.72 1.12 1.79 1.6 3.2L64.92 42h-5.31l-5.38-15.8a2.23 2.23 0 00-.38-.58c-.09-.13-.32-.2-.7-.2H41.89l1.22-1.02.06 17.6zm-.06-37.38v17.35l-.9-.96h15.23c.56 0 .84-.28.84-.83V6.48c0-.55-.28-.83-.84-.83H42.21l.9-1.03zM107.7 42h-5.24L99.7 30.74l.77.64H82.5l.83-.64-3 11.26h-4.94l9.73-34.69c.43-1.66.88-2.92 1.34-3.77a4.16 4.16 0 012.05-1.8c.86-.34 2.1-.5 3.71-.5l5.5.12 10 40.64zM89.86 6.48l-5.7 21-.51-.65h15.87l-.51.64-5.19-21.63h-3.26c-.21 0-.36.06-.45.2-.08.08-.17.23-.25.44zM127.06 42h-5.18V1.36h5.18V42zm41.09-7.49V1.36h4.54V42h-3.58L148.24 9.36l1.16-.58V42h-4.61V1.36h3.65l20.86 32.58-1.15.57zM195.69 42h-5.19V1.36h5.19V42zm41.08-7.49V1.36h4.55V42h-3.59L216.87 9.36l1.15-.58V42h-4.6V1.36h3.64l20.87 32.58-1.16.57zm39.32 7.94h-10.3c-2.78 0-4.83-.56-6.15-1.67-1.32-1.15-1.98-3.05-1.98-5.7V8.29c0-2.65.66-4.53 1.98-5.64 1.32-1.15 3.37-1.73 6.14-1.73h17.73v4.74h-19.9c-.39 0-.58.21-.58.64v30.78c0 .43.2.64.58.64h14.85c.42 0 .64-.21.64-.64V24.21l.64.9h-7.88v-4.42h12.36v14.4c0 2.64-.67 4.54-1.99 5.7-1.32 1.1-3.37 1.66-6.14 1.66z" fill="#fff"/></svg>