<svg width="400" height="95" viewBox="0 0 400 95" fill="none" xmlns="http://www.w3.org/2000/svg"><path d="M.5 95V.5h51.84C71.18.5 80.6 9.98 80.6 28.94V95H59.54V27.14c0-5.52-2.76-8.28-8.28-8.28h-29.7V95H.5zm111.2-28.44V28.94C111.7 9.98 121.2.5 140.16.5h25.2c18.84 0 28.26 9.48 28.26 28.44v37.62c0 18.96-9.42 28.44-28.26 28.44h-25.2c-18.96 0-28.44-9.48-28.44-28.44zm21.07 1.8c0 5.52 2.76 8.28 8.28 8.28h23.22c5.52 0 8.28-2.76 8.28-8.28V27.14c0-5.52-2.76-8.28-8.28-8.28h-23.22c-5.52 0-8.28 2.76-8.28 8.28v41.22zm82.6-64.62L217.51.5h18.18l23.76 76.14h2.7L285.92.5h18.18l2.16 3.24L276.74 95h-31.68l-29.7-91.26zM351.11 95c-18.96 0-28.44-9.36-28.44-28.08s9.48-28.08 28.44-28.08h27.72v-11.7c0-5.52-2.76-8.28-8.28-8.28H332.4V7.52L341.76.5h29.88c18.84 0 28.26 9.48 28.26 28.44V95h-48.78zm-7.38-26.64c0 5.52 2.76 8.28 8.28 8.28h26.82V55.22h-26.82c-5.52 0-8.28 2.7-8.28 8.1v5.04z" fill="#fff"/></svg>