<svg width="371" height="102" viewBox="0 0 371 102" fill="none" xmlns="http://www.w3.org/2000/svg"><path d="M36.8.4H48C56.13.4 62 2 65.6 5.2c3.73 3.2 5.6 8.87 5.6 17V100H51.6V18.6c0-1.47-.73-2.2-2.2-2.2H21.8c-1.47 0-2.2.73-2.2 2.2l.2 81.4H.2L0 2h17.4l2.2 14.4-1.6 3.8c0-6.53 1.47-11.47 4.4-14.8 3.07-3.33 7.87-5 14.4-5zM153 17h-28.6c-1.46 0-2.2.73-2.2 2.2v63.6c0 1.47.74 2.2 2.2 2.2H153c1.47 0 2.2-.73 2.2-2.2V19.2c0-1.47-.73-2.2-2.2-2.2zm-50.6 60V25c0-8.93 2.14-15.27 6.4-19C113.2 2.27 120.28.4 130 .4h17.4c9.74 0 16.74 1.87 21 5.6 4.4 3.73 6.6 10.07 6.6 19v52c0 8.93-2.2 15.27-6.6 19-4.26 3.73-11.26 5.6-21 5.6H130c-9.73 0-16.8-1.87-21.2-5.6-4.26-3.73-6.4-10.07-6.4-19zm161.23 3c-1.06 5.33-2.4 9.6-4 12.8a13.15 13.15 0 01-6.6 6.8c-2.93 1.2-7.06 1.67-12.4 1.4l-21.8-1-20.8-98h19.6l17.2 83.6h8.2c.8 0 1.34-.13 1.6-.4.27-.4.47-1 .6-1.8L261.83 2h19l-17.2 78zm69.98 21.6h-10c-8 0-13.87-1.6-17.6-4.8-3.74-3.33-5.6-9-5.6-17V65.4c0-8.67 1.93-14.67 5.8-18 3.86-3.33 10.4-5 19.6-5H353v14.4h-31c-1.47 0-2.2.67-2.2 2v24.6c0 1.47.73 2.2 2.2 2.2h28.6V20.4c0-1.33-.74-2-2.2-2h-42V1.8h38c9.33-.13 16 1.6 20 5.2 4.13 3.6 6.2 9.87 6.2 18.8V100h-17.8l-2.2-14.4 1.2-3.8c0 6.4-1.4 11.33-4.2 14.8-2.8 3.33-7.47 5-14 5z" fill="#fff"/></svg>