<svg width="16" height="16" viewBox="0 0 16 16" fill="none" xmlns="http://www.w3.org/2000/svg">
<g clip-path="url(#clip0_1_2)">
<path d="M6.49453 9.54221C6.09376 9.66238 5.67244 9.72247 5.23056 9.72247C2.79511 9.72247 0.822083 7.79972 0.822083 5.42633C0.822083 3.05294 2.79511 1.12018 5.23056 1.12018C7.66601 1.12018 9.63904 3.04293 9.63904 5.41632C9.63904 5.7568 9.59793 6.08727 9.526 6.39772" stroke="#223A7E" stroke-width="0.25" stroke-miterlimit="10"/>
<path d="M5.63133 4.84549C7.21387 4.79542 7.92292 6.84836 7.41939 7.44921C7.12138 7.79971 3.81245 7.96996 3.11367 7.46924C2.48683 7.0186 3.24726 4.88555 4.70648 4.83548" fill="#81CEEA"/>
<path d="M5.63133 4.84549C7.21387 4.79542 7.92292 6.84836 7.41939 7.44921C7.12138 7.79971 3.81245 7.96996 3.11367 7.46924C2.48683 7.0186 3.24726 4.88555 4.70648 4.83548" stroke="#223A7E" stroke-width="0.25" stroke-miterlimit="10"/>
<path d="M5.19972 4.91561C5.88077 4.91561 6.43286 4.37758 6.43286 3.71389C6.43286 3.0502 5.88077 2.51218 5.19972 2.51218C4.51868 2.51218 3.96658 3.0502 3.96658 3.71389C3.96658 4.37758 4.51868 4.91561 5.19972 4.91561Z" stroke="#203B7B" stroke-width="0.25" stroke-miterlimit="10"/>
<path d="M10.8105 14.8698C13.2453 14.8698 15.219 12.9464 15.219 10.5737C15.219 8.20097 13.2453 6.27753 10.8105 6.27753C8.37581 6.27753 6.40207 8.20097 6.40207 10.5737C6.40207 12.9464 8.37581 14.8698 10.8105 14.8698Z" stroke="#223A7E" stroke-width="0.25" stroke-miterlimit="10"/>
<path d="M11.2319 9.99283C12.7938 9.96279 13.4926 11.9957 12.9994 12.5966C12.7014 12.9471 9.39243 13.1173 8.69365 12.6166C8.0668 12.1559 8.83751 10.0028 10.3276 9.98282" fill="#56564C"/>
<path d="M11.2319 9.99283C12.7938 9.96279 13.4926 11.9957 12.9994 12.5966C12.7014 12.9471 9.39243 13.1173 8.69365 12.6166C8.0668 12.1559 8.83751 10.0028 10.3276 9.98282" stroke="#223A7E" stroke-width="0.25" stroke-miterlimit="10"/>
<path d="M10.7797 10.0629C11.4608 10.0629 12.0129 9.52492 12.0129 8.86123C12.0129 8.19754 11.4608 7.65952 10.7797 7.65952C10.0987 7.65952 9.54657 8.19754 9.54657 8.86123C9.54657 9.52492 10.0987 10.0629 10.7797 10.0629Z" stroke="#203B7B" stroke-width="0.25" stroke-miterlimit="10"/>
<path d="M1.50034 9.84262V12.7468C1.50034 13.7682 2.30188 14.4592 3.35005 14.4592H7.04947" stroke="#233774" stroke-width="0.25" stroke-miterlimit="10"/>
<path d="M0.390502 11.9957H2.63071C2.83623 11.9957 2.94927 11.7754 2.84651 11.6152L1.71613 9.96279C1.61337 9.81257 1.39757 9.81257 1.29481 9.96279L0.174703 11.6152C0.0616647 11.7854 0.174703 12.0057 0.390502 12.0057V11.9957Z" fill="#55564D" stroke="#233774" stroke-width="0.25" stroke-miterlimit="10"/>
<path d="M14.4894 6.35765V3.4535C14.4894 2.43205 13.6879 1.74106 12.6397 1.74106H8.94028" stroke="#233774" stroke-width="0.25" stroke-miterlimit="10"/>
<path d="M15.6095 4.20456H13.3693C13.1638 4.20456 13.0508 4.42488 13.1535 4.58511L14.2839 6.23747C14.3867 6.38768 14.6025 6.38768 14.7052 6.23747L15.8253 4.58511C15.9384 4.41486 15.8253 4.19455 15.6095 4.19455V4.20456Z" fill="#67C7ED" stroke="#233774" stroke-width="0.25" stroke-miterlimit="10"/>
</g>
<defs>
<clipPath id="clip0_1_2">
<rect width="16" height="14" fill="white" transform="translate(0 1)"/>
</clipPath>
</defs>
</svg>
