<svg width="19" height="19" viewBox="0 0 19 19" fill="none" xmlns="http://www.w3.org/2000/svg">
<g clip-path="url(#clip0_1_3)">
<path d="M1 17.9985H18V10.8322H11.744V13.7831H6.474V16.2781L1.02267 16.2895L1 17.9985Z" stroke="#1D1D1B" stroke-width="0.25" stroke-miterlimit="10"/>
<path d="M1.578 17.52V16.7681H4.01467" stroke="#1D1D1B" stroke-width="0.25" stroke-linecap="round" stroke-linejoin="round"/>
<path d="M7.07465 15.0818V14.3641H9.56798" stroke="#1D1D1B" stroke-width="0.25" stroke-linecap="round" stroke-linejoin="round"/>
<path d="M12.356 12.1197V11.3905H14.838" stroke="#1D1D1B" stroke-width="0.25" stroke-linecap="round" stroke-linejoin="round"/>
<path d="M2.77932 8.22324L1.31732 9.96638Z" fill="white"/>
<path d="M2.77932 8.22324L1.31732 9.96638" stroke="#1D1D1B" stroke-width="0.25" stroke-linecap="round" stroke-linejoin="round"/>
<path d="M5.36333 7.84728C6.08314 7.84728 6.66666 7.26068 6.66666 6.53707C6.66666 5.81347 6.08314 5.22687 5.36333 5.22687C4.64352 5.22687 4.06 5.81347 4.06 6.53707C4.06 7.26068 4.64352 7.84728 5.36333 7.84728Z" stroke="#1D1D1B" stroke-width="0.25" stroke-linecap="round" stroke-linejoin="round"/>
<path d="M4.57007 6.57124C4.59563 6.38667 4.67899 6.21508 4.80807 6.08134C4.94015 5.9356 5.12253 5.84596 5.31807 5.83069" stroke="#1D1D1B" stroke-width="0.25" stroke-linecap="round" stroke-linejoin="round"/>
<path d="M9.20738 5.5C9.20738 5.5 7.93598 6.63958 7.30132 7.22063L6.53065 7.90421H4.42265C4.2448 7.90243 4.06902 7.94276 3.90955 8.02193C3.75007 8.1011 3.61136 8.21689 3.50466 8.35994C2.94932 9.05492 1.94066 10.3879 1.48732 11.0259C1.15866 11.5158 1.80466 12.0741 2.29199 11.5158C2.50732 11.2994 3.83332 9.49925 3.79932 9.52203C3.75399 11.1854 3.64066 14.535 3.64066 15.7427C3.64066 16.1528 4.70599 16.187 4.77399 15.7427C4.89865 15.0135 5.23865 13.2476 5.39732 12.5412C5.41725 12.4557 5.46472 12.3792 5.53235 12.3235C5.59997 12.2679 5.68398 12.2363 5.77132 12.2336H6.81399C6.99532 12.2336 7.07465 12.3019 7.07465 12.4387C7.0719 12.7018 7.09085 12.9648 7.13132 13.2248C7.18799 13.7603 8.19665 13.7717 8.19665 13.4527L8.50265 11.6411C8.57065 11.1512 8.44598 10.8892 8.02665 10.8095H6.89332V9.56761C6.90629 9.27903 7.02782 9.00618 7.23332 8.80427C7.23332 8.80427 9.04667 7.0013 9.5 6.5" stroke="#1D1D1B" stroke-width="0.25" stroke-linecap="round" stroke-linejoin="round"/>
<path d="M12.016 3.57482C11.9067 3.56981 11.7989 3.60192 11.71 3.66596C11.4833 3.83686 10.8713 4.30398 9.19397 5.51164C8.78597 5.79647 9.35264 6.65095 9.90797 6.22941L11.7666 4.86224C11.7822 4.84779 11.8018 4.83857 11.8228 4.83585C11.8438 4.83313 11.8652 4.83705 11.8839 4.84707C11.9025 4.85709 11.9177 4.87271 11.9271 4.89176C11.9366 4.91081 11.9399 4.93235 11.9366 4.95338V10.3309C11.9366 10.6955 13.07 10.6499 13.07 10.3309V8.07509C13.07 7.68772 13.988 7.63076 13.988 8.07509C13.988 10.536 13.988 7.96116 13.988 10.4107C13.988 10.7525 15.1213 10.7183 15.1213 10.4107C15.1213 9.82963 15.1213 5.31796 15.1213 5.31796C15.5053 5.90218 15.9255 6.46155 16.3793 6.99275C16.8213 7.49404 17.5126 6.82185 17.1726 6.34334L15.1666 3.80268C15.1057 3.72525 15.0282 3.66253 14.9399 3.61916C14.8517 3.57578 14.7549 3.55284 14.6566 3.55203L12.016 3.57482Z" stroke="#1D1D1B" stroke-width="0.25" stroke-linecap="round" stroke-linejoin="round"/>
<path d="M16.2093 4.05338L17.592 5.86488" stroke="#1D1D1B" stroke-width="0.25" stroke-linecap="round" stroke-linejoin="round"/>
<path d="M13.5799 3.57484C14.2872 3.57484 14.8606 2.99844 14.8606 2.28742C14.8606 1.5764 14.2872 1 13.5799 1C12.8726 1 12.2993 1.5764 12.2993 2.28742C12.2993 2.99844 12.8726 3.57484 13.5799 3.57484Z" stroke="#1D1D1B" stroke-width="0.25" stroke-linecap="round" stroke-linejoin="round"/>
<path d="M12.7413 2.24188C12.7464 2.03757 12.8273 1.84255 12.9679 1.69501C13.1103 1.55722 13.2932 1.46932 13.4893 1.44437" stroke="#1D1D1B" stroke-width="0.25" stroke-linecap="round" stroke-linejoin="round"/>
</g>
<defs>
<clipPath id="clip0_1_3">
<rect width="19" height="19" fill="white"/>
</clipPath>
</defs>
</svg>
