<svg xmlns="http://www.w3.org/2000/svg" xmlns:xlink="http://www.w3.org/1999/xlink" width="500" zoomAndPan="magnify" viewBox="0 0 375 374.999991" height="500" preserveAspectRatio="xMidYMid meet" version="1.0"><defs><g/><clipPath id="d0ca414ff9"><path d="M 87.445312 42 L 287.695312 42 L 287.695312 217.878906 L 87.445312 217.878906 Z M 87.445312 42 " clip-rule="nonzero"/></clipPath></defs><rect x="-37.5" width="450" fill="#ffffff" y="-37.499999" height="449.999989" fill-opacity="1"/><rect x="-37.5" width="450" fill="#ffffff" y="-37.499999" height="449.999989" fill-opacity="1"/><rect x="-37.5" width="450" fill="#ffffff" y="-37.499999" height="449.999989" fill-opacity="1"/><g clip-path="url(#d0ca414ff9)"><path fill="#0055ea" d="M 187.570312 42.226562 C 146.9375 42.226562 112.476562 71.308594 112.476562 108.992188 C 112.476562 125.234375 119.996094 139.464844 130.988281 150.71875 L 87.445312 150.71875 L 87.445312 167.410156 L 162.539062 167.410156 L 162.539062 153.066406 L 158.105469 150.71875 C 141.125 141.863281 129.164062 126.070312 129.164062 108.992188 C 129.164062 81.574219 154.777344 58.917969 187.570312 58.917969 C 220.359375 58.917969 245.976562 81.574219 245.976562 108.992188 C 245.976562 126.070312 234.011719 141.863281 217.035156 150.71875 L 212.601562 153.066406 L 212.601562 167.410156 L 287.695312 167.410156 L 287.695312 150.71875 L 244.152344 150.71875 C 255.144531 139.464844 262.664062 125.234375 262.664062 108.992188 C 262.664062 71.308594 228.203125 42.226562 187.570312 42.226562 Z M 87.445312 200.792969 L 87.445312 217.484375 L 287.695312 217.484375 L 287.695312 200.792969 Z M 87.445312 200.792969 " fill-opacity="1" fill-rule="nonzero"/></g><g fill="#070217" fill-opacity="1"><g transform="translate(87.720781, 253.026502)"><g><path d="M 20.625 0 L 19.328125 0 L 4.0625 -12.4375 L 4.0625 0 L 2.15625 0 L 2.15625 -15.40625 L 3.453125 -15.40625 L 18.71875 -2.96875 L 18.71875 -15.40625 L 20.625 -15.40625 Z M 20.625 0 "/></g></g></g><g fill="#070217" fill-opacity="1"><g transform="translate(110.490174, 253.026502)"><g><path d="M 15.3125 0 C 16.625 0 17.75 -0.460938 18.6875 -1.390625 C 19.625 -2.328125 20.09375 -3.457031 20.09375 -4.78125 L 20.09375 -10.640625 C 20.09375 -11.953125 19.625 -13.078125 18.6875 -14.015625 C 17.75 -14.953125 16.625 -15.421875 15.3125 -15.421875 L 6.390625 -15.421875 C 5.078125 -15.421875 3.953125 -14.953125 3.015625 -14.015625 C 2.078125 -13.078125 1.609375 -11.953125 1.609375 -10.640625 L 1.609375 -4.78125 C 1.609375 -3.457031 2.078125 -2.328125 3.015625 -1.390625 C 3.953125 -0.460938 5.078125 0 6.390625 0 Z M 15.3125 -1.90625 L 6.390625 -1.90625 C 5.597656 -1.90625 4.921875 -2.1875 4.359375 -2.75 C 3.804688 -3.3125 3.53125 -3.988281 3.53125 -4.78125 L 3.53125 -10.640625 C 3.53125 -11.421875 3.804688 -12.09375 4.359375 -12.65625 C 4.921875 -13.21875 5.597656 -13.5 6.390625 -13.5 L 15.3125 -13.5 C 16.101562 -13.5 16.773438 -13.21875 17.328125 -12.65625 C 17.890625 -12.09375 18.171875 -11.421875 18.171875 -10.640625 L 18.171875 -4.78125 C 18.171875 -3.988281 17.890625 -3.3125 17.328125 -2.75 C 16.773438 -2.1875 16.101562 -1.90625 15.3125 -1.90625 Z M 15.3125 -1.90625 "/></g></g></g><g fill="#070217" fill-opacity="1"><g transform="translate(132.185538, 253.026502)"><g><path d="M 15.84375 0 C 17.164062 0 18.289062 -0.460938 19.21875 -1.390625 C 20.15625 -2.328125 20.625 -3.457031 20.625 -4.78125 L 20.625 -10.640625 C 20.625 -11.953125 20.15625 -13.078125 19.21875 -14.015625 C 18.289062 -14.953125 17.164062 -15.421875 15.84375 -15.421875 L 2.15625 -15.421875 L 2.15625 0 Z M 15.84375 -1.90625 L 4.0625 -1.90625 L 4.0625 -13.5 L 15.84375 -13.5 C 16.632812 -13.5 17.3125 -13.21875 17.875 -12.65625 C 18.4375 -12.09375 18.71875 -11.421875 18.71875 -10.640625 L 18.71875 -4.78125 C 18.71875 -3.988281 18.4375 -3.3125 17.875 -2.75 C 17.3125 -2.1875 16.632812 -1.90625 15.84375 -1.90625 Z M 15.84375 -1.90625 "/></g></g></g><g fill="#070217" fill-opacity="1"><g transform="translate(154.417917, 253.026502)"><g><path d="M 15.3125 0 C 16.625 0 17.75 -0.460938 18.6875 -1.390625 C 19.625 -2.328125 20.09375 -3.457031 20.09375 -4.78125 L 20.09375 -10.640625 C 20.09375 -11.953125 19.625 -13.078125 18.6875 -14.015625 C 17.75 -14.953125 16.625 -15.421875 15.3125 -15.421875 L 6.390625 -15.421875 C 5.078125 -15.421875 3.953125 -14.953125 3.015625 -14.015625 C 2.078125 -13.078125 1.609375 -11.953125 1.609375 -10.640625 L 1.609375 -4.78125 C 1.609375 -3.457031 2.078125 -2.328125 3.015625 -1.390625 C 3.953125 -0.460938 5.078125 0 6.390625 0 Z M 15.3125 -1.90625 L 6.390625 -1.90625 C 5.597656 -1.90625 4.921875 -2.1875 4.359375 -2.75 C 3.804688 -3.3125 3.53125 -3.988281 3.53125 -4.78125 L 3.53125 -10.640625 C 3.53125 -11.421875 3.804688 -12.09375 4.359375 -12.65625 C 4.921875 -13.21875 5.597656 -13.5 6.390625 -13.5 L 15.3125 -13.5 C 16.101562 -13.5 16.773438 -13.21875 17.328125 -12.65625 C 17.890625 -12.09375 18.171875 -11.421875 18.171875 -10.640625 L 18.171875 -4.78125 C 18.171875 -3.988281 17.890625 -3.3125 17.328125 -2.75 C 16.773438 -2.1875 16.101562 -1.90625 15.3125 -1.90625 Z M 15.3125 -1.90625 "/></g></g></g><g fill="#070217" fill-opacity="1"><g transform="translate(176.113282, 253.026502)"><g/></g></g><g fill="#070217" fill-opacity="1"><g transform="translate(181.569344, 253.026502)"><g><path d="M 20.625 0 L 19.328125 0 L 4.0625 -12.4375 L 4.0625 0 L 2.15625 0 L 2.15625 -15.40625 L 3.453125 -15.40625 L 18.71875 -2.96875 L 18.71875 -15.40625 L 20.625 -15.40625 Z M 20.625 0 "/></g></g></g><g fill="#070217" fill-opacity="1"><g transform="translate(204.338736, 253.026502)"><g><path d="M 15.3125 0 C 16.625 0 17.75 -0.460938 18.6875 -1.390625 C 19.625 -2.328125 20.09375 -3.457031 20.09375 -4.78125 L 20.09375 -10.640625 C 20.09375 -11.953125 19.625 -13.078125 18.6875 -14.015625 C 17.75 -14.953125 16.625 -15.421875 15.3125 -15.421875 L 6.390625 -15.421875 C 5.078125 -15.421875 3.953125 -14.953125 3.015625 -14.015625 C 2.078125 -13.078125 1.609375 -11.953125 1.609375 -10.640625 L 1.609375 -4.78125 C 1.609375 -3.457031 2.078125 -2.328125 3.015625 -1.390625 C 3.953125 -0.460938 5.078125 0 6.390625 0 Z M 15.3125 -1.90625 L 6.390625 -1.90625 C 5.597656 -1.90625 4.921875 -2.1875 4.359375 -2.75 C 3.804688 -3.3125 3.53125 -3.988281 3.53125 -4.78125 L 3.53125 -10.640625 C 3.53125 -11.421875 3.804688 -12.09375 4.359375 -12.65625 C 4.921875 -13.21875 5.597656 -13.5 6.390625 -13.5 L 15.3125 -13.5 C 16.101562 -13.5 16.773438 -13.21875 17.328125 -12.65625 C 17.890625 -12.09375 18.171875 -11.421875 18.171875 -10.640625 L 18.171875 -4.78125 C 18.171875 -3.988281 17.890625 -3.3125 17.328125 -2.75 C 16.773438 -2.1875 16.101562 -1.90625 15.3125 -1.90625 Z M 15.3125 -1.90625 "/></g></g></g><g fill="#070217" fill-opacity="1"><g transform="translate(226.034101, 253.026502)"><g><path d="M 20.625 0 L 18.71875 0 L 18.71875 -4.203125 C 18.71875 -4.640625 18.5625 -5.015625 18.25 -5.328125 C 17.9375 -5.640625 17.5625 -5.796875 17.125 -5.796875 L 4.0625 -5.796875 L 4.0625 0 L 2.15625 0 L 2.15625 -15.40625 L 17.125 -15.40625 C 18.09375 -15.40625 18.914062 -15.0625 19.59375 -14.375 C 20.28125 -13.695312 20.625 -12.875 20.625 -11.90625 L 20.625 -9.296875 C 20.625 -8.285156 20.257812 -7.4375 19.53125 -6.75 C 20.257812 -6.050781 20.625 -5.203125 20.625 -4.203125 Z M 17.125 -7.703125 C 17.5625 -7.703125 17.9375 -7.859375 18.25 -8.171875 C 18.5625 -8.484375 18.71875 -8.859375 18.71875 -9.296875 L 18.71875 -11.90625 C 18.71875 -12.34375 18.5625 -12.71875 18.25 -13.03125 C 17.9375 -13.34375 17.5625 -13.5 17.125 -13.5 L 4.0625 -13.5 L 4.0625 -7.703125 Z M 17.125 -7.703125 "/></g></g></g><g fill="#070217" fill-opacity="1"><g transform="translate(248.266479, 253.026502)"><g><path d="M 9.8125 0 L 7.90625 0 L 7.90625 -13.5 L 0.328125 -13.5 L 0.328125 -15.40625 L 17.40625 -15.40625 L 17.40625 -13.5 L 9.8125 -13.5 Z M 9.8125 0 "/></g></g></g><g fill="#070217" fill-opacity="1"><g transform="translate(265.98794, 253.026502)"><g><path d="M 19.671875 0 L 2.15625 0 L 2.15625 -15.421875 L 19.671875 -15.421875 L 19.671875 -13.5 L 4.0625 -13.5 L 4.0625 -8.65625 L 17.859375 -8.65625 L 17.859375 -6.75 L 4.0625 -6.75 L 4.0625 -1.90625 L 19.671875 -1.90625 Z M 19.671875 0 "/></g></g></g><g fill="#070217" fill-opacity="1"><g transform="translate(110.170469, 286.969404)"><g><path d="M 10.4375 0 C 11.332031 0 12.097656 -0.316406 12.734375 -0.953125 C 13.378906 -1.585938 13.703125 -2.359375 13.703125 -3.265625 L 12.390625 -3.265625 C 12.390625 -2.722656 12.195312 -2.257812 11.8125 -1.875 C 11.4375 -1.488281 10.976562 -1.296875 10.4375 -1.296875 L 4.359375 -1.296875 C 3.816406 -1.296875 3.351562 -1.488281 2.96875 -1.875 C 2.59375 -2.257812 2.40625 -2.722656 2.40625 -3.265625 L 2.40625 -7.25 C 2.40625 -7.789062 2.59375 -8.25 2.96875 -8.625 C 3.351562 -9.007812 3.816406 -9.203125 4.359375 -9.203125 L 10.4375 -9.203125 C 10.976562 -9.203125 11.4375 -9.007812 11.8125 -8.625 C 12.195312 -8.25 12.390625 -7.789062 12.390625 -7.25 L 13.703125 -7.25 C 13.703125 -8.144531 13.378906 -8.910156 12.734375 -9.546875 C 12.097656 -10.191406 11.332031 -10.515625 10.4375 -10.515625 L 4.359375 -10.515625 C 3.460938 -10.515625 2.691406 -10.191406 2.046875 -9.546875 C 1.410156 -8.910156 1.09375 -8.144531 1.09375 -7.25 L 1.09375 -3.265625 C 1.09375 -2.359375 1.410156 -1.585938 2.046875 -0.953125 C 2.691406 -0.316406 3.460938 0 4.359375 0 Z M 10.4375 0 "/></g></g></g><g fill="#070217" fill-opacity="1"><g transform="translate(126.16539, 286.969404)"><g><path d="M 10.4375 0 C 11.332031 0 12.097656 -0.316406 12.734375 -0.953125 C 13.378906 -1.585938 13.703125 -2.359375 13.703125 -3.265625 L 13.703125 -7.25 C 13.703125 -8.144531 13.378906 -8.910156 12.734375 -9.546875 C 12.097656 -10.191406 11.332031 -10.515625 10.4375 -10.515625 L 4.359375 -10.515625 C 3.460938 -10.515625 2.691406 -10.191406 2.046875 -9.546875 C 1.410156 -8.910156 1.09375 -8.144531 1.09375 -7.25 L 1.09375 -3.265625 C 1.09375 -2.359375 1.410156 -1.585938 2.046875 -0.953125 C 2.691406 -0.316406 3.460938 0 4.359375 0 Z M 10.4375 -1.296875 L 4.359375 -1.296875 C 3.816406 -1.296875 3.351562 -1.488281 2.96875 -1.875 C 2.59375 -2.257812 2.40625 -2.722656 2.40625 -3.265625 L 2.40625 -7.25 C 2.40625 -7.789062 2.59375 -8.25 2.96875 -8.625 C 3.351562 -9.007812 3.816406 -9.203125 4.359375 -9.203125 L 10.4375 -9.203125 C 10.976562 -9.203125 11.4375 -9.007812 11.8125 -8.625 C 12.195312 -8.25 12.390625 -7.789062 12.390625 -7.25 L 12.390625 -3.265625 C 12.390625 -2.722656 12.195312 -2.257812 11.8125 -1.875 C 11.4375 -1.488281 10.976562 -1.296875 10.4375 -1.296875 Z M 10.4375 -1.296875 "/></g></g></g><g fill="#070217" fill-opacity="1"><g transform="translate(142.160311, 286.969404)"><g><path d="M 14.0625 0 L 13.171875 0 L 2.765625 -8.484375 L 2.765625 0 L 1.46875 0 L 1.46875 -10.5 L 2.34375 -10.5 L 12.765625 -2.015625 L 12.765625 -10.5 L 14.0625 -10.5 Z M 14.0625 0 "/></g></g></g><g fill="#070217" fill-opacity="1"><g transform="translate(158.887656, 286.969404)"><g><path d="M 11.3125 0 L 3.484375 0 C 2.828125 0 2.265625 -0.234375 1.796875 -0.703125 C 1.328125 -1.171875 1.09375 -1.734375 1.09375 -2.390625 L 2.40625 -2.390625 C 2.40625 -2.085938 2.507812 -1.828125 2.71875 -1.609375 C 2.9375 -1.398438 3.191406 -1.296875 3.484375 -1.296875 L 11.3125 -1.296875 C 11.601562 -1.296875 11.851562 -1.398438 12.0625 -1.609375 C 12.28125 -1.828125 12.390625 -2.085938 12.390625 -2.390625 L 12.390625 -3.515625 C 12.390625 -3.816406 12.28125 -4.070312 12.0625 -4.28125 C 11.851562 -4.488281 11.601562 -4.59375 11.3125 -4.59375 L 3.484375 -4.59375 C 2.828125 -4.59375 2.265625 -4.828125 1.796875 -5.296875 C 1.328125 -5.765625 1.09375 -6.328125 1.09375 -6.984375 L 1.09375 -8.109375 C 1.09375 -8.773438 1.328125 -9.335938 1.796875 -9.796875 C 2.265625 -10.265625 2.828125 -10.5 3.484375 -10.5 L 11.3125 -10.5 C 11.96875 -10.5 12.53125 -10.265625 13 -9.796875 C 13.46875 -9.335938 13.703125 -8.773438 13.703125 -8.109375 L 12.390625 -8.109375 C 12.390625 -8.410156 12.28125 -8.664062 12.0625 -8.875 C 11.851562 -9.09375 11.601562 -9.203125 11.3125 -9.203125 L 3.484375 -9.203125 C 3.191406 -9.203125 2.9375 -9.09375 2.71875 -8.875 C 2.507812 -8.664062 2.40625 -8.410156 2.40625 -8.109375 L 2.40625 -6.984375 C 2.40625 -6.691406 2.507812 -6.4375 2.71875 -6.21875 C 2.9375 -6.007812 3.191406 -5.90625 3.484375 -5.90625 L 11.3125 -5.90625 C 11.96875 -5.90625 12.53125 -5.671875 13 -5.203125 C 13.46875 -4.734375 13.703125 -4.171875 13.703125 -3.515625 L 13.703125 -2.390625 C 13.703125 -1.734375 13.46875 -1.171875 13 -0.703125 C 12.53125 -0.234375 11.96875 0 11.3125 0 Z M 11.3125 0 "/></g></g></g><g fill="#070217" fill-opacity="1"><g transform="translate(174.882575, 286.969404)"><g><path d="M 10.4375 0 C 11.332031 0 12.097656 -0.316406 12.734375 -0.953125 C 13.378906 -1.585938 13.703125 -2.359375 13.703125 -3.265625 L 13.703125 -10.515625 L 12.390625 -10.515625 L 12.390625 -3.265625 C 12.390625 -2.722656 12.195312 -2.257812 11.8125 -1.875 C 11.4375 -1.488281 10.976562 -1.296875 10.4375 -1.296875 L 4.359375 -1.296875 C 3.816406 -1.296875 3.351562 -1.488281 2.96875 -1.875 C 2.59375 -2.257812 2.40625 -2.722656 2.40625 -3.265625 L 2.40625 -10.515625 L 1.09375 -10.515625 L 1.09375 -3.265625 C 1.09375 -2.359375 1.410156 -1.585938 2.046875 -0.953125 C 2.691406 -0.316406 3.460938 0 4.359375 0 Z M 10.4375 0 "/></g></g></g><g fill="#070217" fill-opacity="1"><g transform="translate(190.877495, 286.969404)"><g><path d="M 11.265625 0 L 11.265625 -1.296875 L 2.765625 -1.296875 L 2.765625 -10.515625 L 1.46875 -10.515625 L 1.46875 0 Z M 11.265625 0 "/></g></g></g><g fill="#070217" fill-opacity="1"><g transform="translate(203.854836, 286.969404)"><g><path d="M 6.6875 0 L 5.390625 0 L 5.390625 -9.203125 L 0.21875 -9.203125 L 0.21875 -10.5 L 11.859375 -10.5 L 11.859375 -9.203125 L 6.6875 -9.203125 Z M 6.6875 0 "/></g></g></g><g fill="#070217" fill-opacity="1"><g transform="translate(217.139796, 286.969404)"><g><path d="M 10.4375 0 C 11.332031 0 12.097656 -0.316406 12.734375 -0.953125 C 13.378906 -1.585938 13.703125 -2.359375 13.703125 -3.265625 L 13.703125 -7.25 C 13.703125 -8.144531 13.378906 -8.910156 12.734375 -9.546875 C 12.097656 -10.191406 11.332031 -10.515625 10.4375 -10.515625 L 4.359375 -10.515625 C 3.460938 -10.515625 2.691406 -10.191406 2.046875 -9.546875 C 1.410156 -8.910156 1.09375 -8.144531 1.09375 -7.25 L 1.09375 -3.265625 C 1.09375 -2.359375 1.410156 -1.585938 2.046875 -0.953125 C 2.691406 -0.316406 3.460938 0 4.359375 0 Z M 10.4375 -1.296875 L 4.359375 -1.296875 C 3.816406 -1.296875 3.351562 -1.488281 2.96875 -1.875 C 2.59375 -2.257812 2.40625 -2.722656 2.40625 -3.265625 L 2.40625 -7.25 C 2.40625 -7.789062 2.59375 -8.25 2.96875 -8.625 C 3.351562 -9.007812 3.816406 -9.203125 4.359375 -9.203125 L 10.4375 -9.203125 C 10.976562 -9.203125 11.4375 -9.007812 11.8125 -8.625 C 12.195312 -8.25 12.390625 -7.789062 12.390625 -7.25 L 12.390625 -3.265625 C 12.390625 -2.722656 12.195312 -2.257812 11.8125 -1.875 C 11.4375 -1.488281 10.976562 -1.296875 10.4375 -1.296875 Z M 10.4375 -1.296875 "/></g></g></g><g fill="#070217" fill-opacity="1"><g transform="translate(233.134721, 286.969404)"><g><path d="M 14.0625 0 L 12.765625 0 L 12.765625 -2.859375 C 12.765625 -3.160156 12.65625 -3.414062 12.4375 -3.625 C 12.226562 -3.84375 11.972656 -3.953125 11.671875 -3.953125 L 2.765625 -3.953125 L 2.765625 0 L 1.46875 0 L 1.46875 -10.5 L 11.671875 -10.5 C 12.328125 -10.5 12.890625 -10.265625 13.359375 -9.796875 C 13.828125 -9.335938 14.0625 -8.773438 14.0625 -8.109375 L 14.0625 -6.328125 C 14.0625 -5.648438 13.8125 -5.070312 13.3125 -4.59375 C 13.8125 -4.125 14.0625 -3.546875 14.0625 -2.859375 Z M 11.671875 -5.25 C 11.972656 -5.25 12.226562 -5.351562 12.4375 -5.5625 C 12.65625 -5.78125 12.765625 -6.035156 12.765625 -6.328125 L 12.765625 -8.109375 C 12.765625 -8.410156 12.65625 -8.664062 12.4375 -8.875 C 12.226562 -9.09375 11.972656 -9.203125 11.671875 -9.203125 L 2.765625 -9.203125 L 2.765625 -5.25 Z M 11.671875 -5.25 "/></g></g></g><g fill="#070217" fill-opacity="1"><g transform="translate(249.495858, 286.969404)"><g><path d="M 15.109375 0 L 13.53125 0 L 11.9375 -2.375 L 3.390625 -2.375 L 1.796875 0 L 0.21875 0 L 7.3125 -10.5 L 8 -10.5 Z M 11.046875 -3.671875 L 7.65625 -8.6875 L 4.28125 -3.671875 Z M 11.046875 -3.671875 "/></g></g></g></svg>