<?xml version="1.0" encoding="UTF-8"?>
<svg id="Capa_1" data-name="Capa 1" xmlns="http://www.w3.org/2000/svg" viewBox="0 0 123.55 125.63">
  <defs>
    <style>
      .cls-1 {
        fill: #3f98d4;
      }

      .cls-2 {
        fill: #a5a5a4;
      }

      .cls-3 {
        fill: #4c67af;
      }

      .cls-4 {
        fill: #154e9c;
      }

      .cls-5 {
        fill: #1d1d1b;
      }
    </style>
  </defs>
  <polygon class="cls-1" points="0 56.91 13.37 70.47 41.18 42.27 68.06 69.52 110.11 26.87 123.55 40.5 123.55 0 83.74 0 96.83 13.28 68.46 42.05 41.79 15 0 56.91"/>
  <ellipse class="cls-3" cx="41.4" cy="63.18" rx="9.32" ry="9.45"/>
  <ellipse class="cls-2" cx="93.17" cy="63.18" rx="9.32" ry="9.45"/>
  <ellipse class="cls-4" cx="67.53" cy="19.06" rx="9.32" ry="9.45"/>
  <g>
    <path class="cls-5" d="m.4,109.38v-30.71h16.65c6,0,9,3,9,9v21.71h-5.71v-22.3c0-2.27-1.14-3.41-3.41-3.41H6.11v25.71H.4Z"/>
    <path class="cls-5" d="m34.53,100.32v-12.65c0-6,3-9,9-9h8.24c6,0,9,3,9,9v12.65c0,6.04-3,9.06-9,9.06h-8.24c-6,0-9-3.02-9-9.06Zm5.71.59c0,2.31,1.16,3.47,3.47,3.47h7.94c2.27,0,3.41-1.16,3.41-3.47v-13.83c0-2.27-1.14-3.41-3.41-3.41h-7.94c-2.31,0-3.47,1.14-3.47,3.41v13.83Z"/>
    <path class="cls-5" d="m66.01,79.61l.65-.94h4.94l8.36,25.71h1.06l8.41-25.71h4.89l.65.94-10,29.77h-8.88l-10.06-29.77Z"/>
    <path class="cls-5" d="m107.5,109.38c-6.04,0-9.06-3-9.06-9s3.02-9,9.06-9h9.94v-4.3c0-2.27-1.14-3.41-3.41-3.41h-12.59v-3l2.71-2h10.01c6,0,9,3,9,9v21.71h-15.65Zm-3.36-8.47c0,2.31,1.16,3.47,3.47,3.47h9.83v-8.53h-9.83c-2.31,0-3.47,1.16-3.47,3.47v1.59Z"/>
  </g>
  <g>
    <path class="cls-5" d="m18.62,113.6v-1.49h10.66v1.49h-4.51v12.03h-1.65v-12.03h-4.51Z"/>
    <path class="cls-5" d="m31.51,125.63v-13.52h6.4c2,0,3,1,3,3v2.16c0,1.7-.72,2.66-2.17,2.9l2.57,5.07-.22.39h-1.39l-2.72-5.37h-3.82v5.37h-1.65Zm1.65-6.86h4.78c.89,0,1.33-.44,1.33-1.33v-2.51c0-.89-.44-1.33-1.33-1.33h-4.78v5.17Z"/>
    <path class="cls-5" d="m42.68,125.28l4.43-13.16h2.7l4.43,13.16-.24.35h-1.35l-1.12-3.41h-6.15l-1.12,3.41h-1.35l-.23-.35Zm3.19-4.54h5.17l-2.35-7.13h-.47l-2.35,7.13Z"/>
    <path class="cls-5" d="m56.39,125.63v-13.52h1.65v13.52h-1.65Z"/>
    <path class="cls-5" d="m61.56,125.63v-13.52h1.82l7.11,10.97v-10.97h1.65v13.52h-1.82l-7.11-10.97v10.97h-1.65Z"/>
    <path class="cls-5" d="m75.67,125.63v-13.52h1.65v13.52h-1.65Z"/>
    <path class="cls-5" d="m80.84,125.63v-13.52h1.82l7.11,10.97v-10.97h1.65v13.52h-1.82l-7.11-10.97v10.97h-1.65Z"/>
    <path class="cls-5" d="m94.75,122.63v-7.52c0-2,1-3,3-3h5.92l.88.69v.8h-6.82c-.89,0-1.33.44-1.33,1.33v7.88c0,.89.44,1.33,1.33,1.33h5.56v-4.86h-3.33v-1.49h4.98v7.84h-7.19c-2,0-3-1-3-3Z"/>
  </g>
</svg>