<svg width="16" height="16" viewBox="0 0 16 16" fill="none" xmlns="http://www.w3.org/2000/svg">
<rect width="16" height="16" fill="#1E1E1E"/>
<mask id="mask0_0_1" style="mask-type:luminance" maskUnits="userSpaceOnUse" x="0" y="1" width="16" height="15">
<path d="M0 1H16V15.0527H0V1Z" fill="white"/>
</mask>
<g mask="url(#mask0_0_1)">
<path d="M8 1.0181C4.75343 1.0181 2 3.34176 2 6.35269C2 7.65044 2.60081 8.78745 3.47909 9.68664H0V11.0203H6V9.87422L5.64576 9.68664C4.28901 8.97909 3.33333 7.71723 3.33333 6.35269C3.33333 4.16199 5.37984 2.35175 8 2.35175C10.6199 2.35175 12.6667 4.16199 12.6667 6.35269C12.6667 7.71723 11.7107 8.97909 10.3542 9.68664L10 9.87422V11.0203H16V9.68664H12.5209C13.3992 8.78745 14 7.65044 14 6.35269C14 3.34176 11.2466 1.0181 8 1.0181ZM0 13.6876V15.0212H16V13.6876H0Z" fill="#0055EA"/>
</g>
</svg>
